<svg id="Capa_1" enable-background="new 0 0 512.001 512.001" height="512" viewBox="0 0 512.001 512.001" width="512" xmlns="http://www.w3.org/2000/svg"><g><path d="m498.307 241.015-90.641-81.391c-3.082-2.767-7.824-2.513-10.591.571-2.767 3.082-2.511 7.824.571 10.591l90.641 81.391c10.721 11.605 11.373 23.751 1.958 36.438-9.64 10.74-25.988 11.35-36.438 1.96l-192.94-173.41c-2.851-2.561-7.171-2.561-10.021 0l-192.94 173.41c-12.689 9.389-24.837 8.735-36.442-1.963-9.413-12.687-8.758-24.833 1.963-36.437l215.191-193.23c9.828-8.828 24.649-8.826 34.477.001l90.31 81.1c3.082 2.767 7.824 2.513 10.591-.569 2.768-3.081 2.513-7.823-.569-10.591l-90.309-81.099c-15.542-13.962-38.982-13.961-54.523-.001l-215.188 193.227c-16.57 14.868-17.987 41.062-3.103 57.622 14.859 16.556 41.073 17.956 57.623 3.101l20.389-18.308v78.887c0 4.143 3.358 7.5 7.5 7.5s7.5-3.357 7.5-7.5v-92.357l152.54-136.972 152.54 136.973v189.727h-142.2v-51.42h14.98c20.678 0 37.5-16.822 37.5-37.5v-18.6c0-4.143-3.358-7.5-7.5-7.5s-7.5 3.357-7.5 7.5v18.6c0 12.406-10.093 22.5-22.5 22.5h-44.96c-12.407 0-22.5-10.094-22.5-22.5v-67.46h89.96v16.17c0 4.143 3.358 7.5 7.5 7.5s7.5-3.357 7.5-7.5v-23.67c0-4.143-3.358-7.5-7.5-7.5h-23.47v-56.204c0-4.143-3.358-7.5-7.5-7.5s-7.5 3.357-7.5 7.5v56.204h-33.134v-56.204c0-4.143-3.358-7.5-7.5-7.5s-7.5 3.357-7.5 7.5v56.204h-18.355c-4.142 0-7.5 3.357-7.5 7.5v74.96c0 20.678 16.822 37.5 37.5 37.5h14.98v51.42h-147.88v-64.689c0-4.143-3.358-7.5-7.5-7.5s-7.5 3.357-7.5 7.5v72.189c0 4.143 3.358 7.5 7.5 7.5h320.08c4.142 0 7.5-3.357 7.5-7.5v-183.758l20.387 18.306c16.331 14.677 42.59 13.089 57.622-3.095 19.783-21.3 7.783-48.633-3.099-57.624z"/></g></svg>